<?xml version="1.0" encoding="utf-8"?>
<!-- Generator: Adobe Illustrator 21.1.0, SVG Export Plug-In . SVG Version: 6.00 Build 0)  -->
<svg version="1.1" id="Layer_1" xmlns="http://www.w3.org/2000/svg" xmlns:xlink="http://www.w3.org/1999/xlink" x="0px" y="0px"
	 viewBox="0 0 51.5 49.5" style="enable-background:new 0 0 51.5 49.5;" xml:space="preserve" stroke="black">
<path d="M50.9,0c-0.1,0-0.2,0-0.2,0c-2.3,7.7-2.9,17.1-9.4,20.6c-1.2-3.4-4.1-4.9-7.4-6.4c-2.1-0.9-4.5-2.6-6.6-2.6
	c-0.5,0-1,0-1.5,0.3c-0.5-0.3-1-0.3-1.5-0.3c-2.1,0.1-4.5,1.7-6.6,2.6c-3.3,1.5-6.3,3-7.4,6.4C3.8,17.1,3.1,7.7,0.8,0
	C0.8,0,0.7,0,0.6,0C0.3,0.7,0.2,1.6,0,2.4c0,1.9,0.5,21.5,1.9,28.4C3.2,37.1,8,41.7,12.7,44.6c3.3,2.1,8.5,4.8,13,4.8
	c4.5,0,9.7-2.8,13-4.8c4.7-3,9.6-7.5,10.8-13.8c1.4-7,1.9-26.5,1.9-28.4C51.3,1.6,51.2,0.7,50.9,0z M36.9,28.1
	c-0.2,1.6-1.7,3.4-3.4,3.5c-3,0.2-4.5-4.4-7.9-4.4c-3.4,0-4.9,4.5-7.9,4.4c-1.7-0.1-3.1-1.9-3.4-3.5c-0.3-1.9,0.6-4.6,1.7-5.6
	c1.1-1.1,2.8-0.9,4.7-1.2c2-0.3,3.8-0.9,4.9-1.9c0,0,0,0,0,0c1.1,1.1,2.8,1.7,4.9,1.9c1.9,0.3,3.6,0.1,4.7,1.2
	C36.3,23.4,37.3,26.1,36.9,28.1z"/>
</svg>
