<?xml version="1.0" encoding="utf-8"?>
<!-- Generator: Adobe Illustrator 21.1.0, SVG Export Plug-In . SVG Version: 6.00 Build 0)  -->
<svg version="1.1" id="Layer_2" xmlns="http://www.w3.org/2000/svg" xmlns:xlink="http://www.w3.org/1999/xlink" x="0px" y="0px"
	 viewBox="0 0 142.2 139.5" style="enable-background:new 0 0 142.2 139.5;" xml:space="preserve">
<g>
	<path d="M72.3,21.5V1c0-0.6-0.4-1-1-1c-0.6,0-1,0.4-1,1v20.5c0.3,0,0.7,0,1,0C71.7,21.4,72,21.5,72.3,21.5z"/>
	<path d="M46.3,28.4c0.6-0.3,1.1-0.7,1.7-1L37.8,9.7c-0.3-0.5-0.9-0.6-1.4-0.4c-0.5,0.3-0.6,0.9-0.4,1.4L46.3,28.4z"/>
	<path d="M11,34.7c-0.3,0.5-0.1,1.1,0.4,1.4L29,46.4c0.3-0.6,0.7-1.2,1-1.7L12.4,34.4C11.9,34.1,11.3,34.2,11,34.7z"/>
	<path d="M106.9,8.5c-0.5-0.3-1.1-0.1-1.4,0.4L94.7,27.5c0.6,0.3,1.2,0.7,1.7,1l10.8-18.6C107.6,9.4,107.4,8.8,106.9,8.5z"/>
	<path d="M132.3,35.7c0.5-0.3,0.6-0.9,0.4-1.4c-0.3-0.5-0.9-0.6-1.4-0.4l-18.6,10.8c0.3,0.6,0.7,1.1,1,1.7L132.3,35.7z"/>
	<path d="M23,69.8c0-0.3,0-0.7,0-1H1.5c-0.6,0-1,0.4-1,1c0,0.6,0.4,1,1,1H23C23,70.4,23,70.1,23,69.8z"/>
	<path d="M141.2,68.8h-21.5c0,0.3,0,0.7,0,1s0,0.7,0,1h21.5c0.6,0,1-0.4,1-1C142.2,69.2,141.7,68.8,141.2,68.8z"/>
	<path d="M131.3,103.4l-17.7-10.3c-0.3,0.6-0.7,1.2-1,1.7l17.7,10.3c0.2,0.1,0.3,0.1,0.5,0.1c0.3,0,0.7-0.2,0.9-0.5
		C131.9,104.3,131.8,103.7,131.3,103.4z"/>
	<path d="M10.4,103.9c-0.5,0.3-0.6,0.9-0.4,1.4c0.2,0.3,0.5,0.5,0.9,0.5c0.2,0,0.3,0,0.5-0.1L30,94.8c-0.3-0.6-0.7-1.1-1-1.7
		L10.4,103.9z"/>
	<path d="M96.4,111.1c-0.6,0.3-1.1,0.7-1.7,1l10.2,17.7c0.2,0.3,0.5,0.5,0.9,0.5c0.2,0,0.3,0,0.5-0.1c0.5-0.3,0.6-0.9,0.4-1.4
		L96.4,111.1z"/>
	<path d="M35.4,129.7c-0.3,0.5-0.1,1.1,0.4,1.4c0.2,0.1,0.3,0.1,0.5,0.1c0.3,0,0.7-0.2,0.9-0.5l10.8-18.6c-0.6-0.3-1.2-0.7-1.7-1
		L35.4,129.7z"/>
	<path d="M70.3,118.1v20.5c0,0.6,0.4,1,1,1c0.6,0,1-0.4,1-1v-20.5c-0.3,0-0.7,0-1,0C71,118.1,70.7,118.1,70.3,118.1z"/>
	<path d="M105.2,51.9c0.7-0.4,1-1.3,0.5-2c-0.4-0.7-1.3-1-2-0.5L75.3,65.7l0,0c-1-1-2.4-1.6-4-1.6c-1.5,0-2.9,0.6-4,1.6L47,53.9
		c-0.7-0.4-1.6-0.2-2.1,0.5c-0.4,0.7-0.2,1.6,0.5,2.1l20.3,11.8c-0.1,0.5-0.2,0.9-0.2,1.4c0,3.1,2.5,5.7,5.7,5.7
		c3.1,0,5.7-2.5,5.7-5.7c0-0.5-0.1-1-0.2-1.4L105.2,51.9z M75.8,66.3C75.8,66.3,75.8,66.3,75.8,66.3C75.8,66.3,75.8,66.3,75.8,66.3z
		 M76.2,66.9C76.2,66.9,76.2,66.9,76.2,66.9C76.2,66.9,76.2,66.9,76.2,66.9z M66.5,66.9C66.4,66.9,66.4,66.9,66.5,66.9
		C66.4,66.9,66.4,66.9,66.5,66.9z M66.9,66.3C66.9,66.3,66.8,66.3,66.9,66.3C66.8,66.3,66.9,66.3,66.9,66.3z M71.3,72.4
		c-1.5,0-2.7-1.2-2.7-2.7s1.2-2.7,2.7-2.7c1.5,0,2.7,1.2,2.7,2.7S72.8,72.4,71.3,72.4z"/>
</g>
</svg>
