<!-- Generated by IcoMoon.io -->
<svg version="1.1" xmlns="http://www.w3.org/2000/svg" width="32" height="32" viewBox="0 0 32 32">
<title>facebook_sign</title>
<path d="M22.286 2.286q2.125 0 3.634 1.509t1.509 3.634v17.143q0 2.125-1.509 3.634t-3.634 1.509h-3.357v-10.625h3.554l0.536-4.143h-4.089v-2.643q0-1 0.42-1.5t1.634-0.5l2.179-0.018v-3.696q-1.125-0.161-3.179-0.161-2.429 0-3.884 1.429t-1.455 4.036v3.054h-3.571v4.143h3.571v10.625h-9.5q-2.125 0-3.634-1.509t-1.509-3.634v-17.143q0-2.125 1.509-3.634t3.634-1.509h17.143z"></path>
</svg>
