<?xml version="1.0" encoding="utf-8"?>
<!-- Generator: Adobe Illustrator 21.1.0, SVG Export Plug-In . SVG Version: 6.00 Build 0)  -->
<svg version="1.1" id="Layer_1" xmlns="http://www.w3.org/2000/svg" xmlns:xlink="http://www.w3.org/1999/xlink" x="0px" y="0px"
	 viewBox="0 0 512 512" style="enable-background:new 0 0 512 512;" xml:space="preserve">
<path d="M480,0H32C14.3,0,0,14.3,0,32v448c0,17.7,14.3,32,32,32h448c17.7,0,32-14.3,32-32V32C512,14.3,497.7,0,480,0z M192,256
	c0,0,5.1-64,64-64c58.9,0,64,64,64,64s1.8,64-64,64C190.2,320,192,256,192,256z M448,448H64V224h64h4.5c-2.7,10.3-4.5,20.9-4.5,32
	c0,70.7,57.3,128,128,128c70.7,0,128-57.3,128-128c0-11.1-1.9-21.7-4.5-32h4.5h64V448z M448,160h-96V64h96V160z"/>
</svg>
