<?xml version="1.0" encoding="utf-8"?>
<!-- Generator: Adobe Illustrator 21.1.0, SVG Export Plug-In . SVG Version: 6.00 Build 0)  -->
<svg version="1.1" id="Layer_2" xmlns="http://www.w3.org/2000/svg" xmlns:xlink="http://www.w3.org/1999/xlink" x="0px" y="0px"
	 viewBox="0 0 36.8 20.7" style="enable-background:new 0 0 36.8 20.7;" xml:space="preserve">
<style type="text/css">
	.st0{fill:#ED1C24;}
</style>
<g>
	<g>
		<g>
			<path class="st0" d="M0.4,10.5c0,0.5,0.5,1,1.1,1h33.7c0.6,0,1.1-0.4,1.1-1c0-0.5-0.5-1-1.1-1H1.5C0.9,9.5,0.4,9.9,0.4,10.5z"/>
		</g>
		<g>
			<path class="st0" d="M1.5,0.5c-0.6,0-1.1,0.4-1.1,1c0,0.5,0.5,1,1.1,1h33.7c0.6,0,1.1-0.4,1.1-1c0-0.5-0.5-1-1.1-1H1.5z"/>
		</g>
		<g>
			<path class="st0" d="M0.4,19.4c0,0.5,0.5,1,1.1,1h33.7c0.6,0,1.1-0.4,1.1-1c0-0.5-0.5-1-1.1-1H1.5C0.9,18.4,0.4,18.9,0.4,19.4z"
				/>
		</g>
	</g>
</g>
</svg>
