<?xml version="1.0" standalone="no"?>
<!DOCTYPE svg PUBLIC "-//W3C//DTD SVG 20010904//EN"
 "http://www.w3.org/TR/2001/REC-SVG-20010904/DTD/svg10.dtd">
<svg version="1.0" xmlns="http://www.w3.org/2000/svg"
 width="760.000000pt" height="760.000000pt" viewBox="0 0 760.000000 760.000000"
 preserveAspectRatio="xMidYMid meet">
<metadata>
Created by potrace 1.11, written by Peter Selinger 2001-2013
</metadata>
<g transform="translate(0.000000,760.000000) scale(0.100000,-0.100000)"
fill="#000000" stroke="none">
<path d="M3505 7562 c-3 -3 -27 -7 -53 -8 -50 -2 -149 -12 -191 -18 -14 -3
-46 -8 -71 -12 -25 -4 -49 -8 -55 -9 -5 0 -30 -4 -55 -9 -25 -5 -52 -10 -61
-11 -64 -12 -322 -79 -387 -100 -7 -3 -14 -5 -17 -5 -3 0 -22 -7 -43 -16 -20
-8 -44 -17 -52 -19 -23 -4 -195 -71 -265 -103 -138 -61 -414 -208 -427 -226
-4 -6 -8 -8 -8 -4 0 4 -63 -35 -140 -87 -142 -96 -155 -105 -191 -137 -10 -10
-22 -18 -25 -18 -16 0 -249 -206 -358 -316 -130 -129 -314 -345 -386 -451 -8
-11 -35 -50 -61 -85 -25 -35 -48 -70 -52 -78 -4 -8 -25 -42 -47 -75 -21 -33
-49 -80 -62 -105 -13 -25 -26 -47 -29 -50 -3 -3 -17 -29 -30 -57 -13 -29 -27
-53 -31 -53 -5 0 -8 -5 -8 -11 0 -5 -17 -47 -39 -92 -66 -139 -79 -171 -127
-303 -58 -161 -56 -157 -60 -169 -16 -53 -56 -193 -59 -205 -37 -157 -41 -178
-51 -240 -3 -19 -9 -48 -13 -65 -4 -16 -7 -38 -5 -47 1 -10 -1 -18 -4 -18 -4
0 -7 -15 -7 -32 -1 -18 -4 -57 -8 -87 -4 -29 -11 -88 -14 -130 -9 -92 -8 -552
0 -636 10 -94 18 -168 23 -195 2 -14 7 -43 10 -65 3 -22 14 -83 24 -135 11
-52 21 -106 24 -120 2 -14 7 -32 10 -40 3 -8 7 -26 10 -40 5 -28 53 -197 63
-220 3 -8 7 -19 9 -25 5 -22 85 -242 98 -270 7 -16 26 -59 42 -95 30 -68 126
-259 161 -320 81 -140 257 -405 295 -444 7 -7 24 -28 38 -46 50 -67 126 -153
240 -275 48 -52 172 -168 239 -225 29 -25 65 -55 80 -68 92 -80 408 -302 430
-302 5 0 11 -4 13 -8 12 -28 506 -272 551 -272 5 0 6 8 2 18 -4 9 -9 26 -11
37 -19 93 -26 151 -28 220 l-3 80 -79 41 c-368 190 -635 380 -896 636 -189
186 -339 365 -454 543 -21 33 -41 62 -44 65 -6 5 -36 55 -78 130 -14 25 -34
59 -44 75 -23 37 -47 88 -45 95 1 3 -8 19 -21 37 -12 17 -22 34 -22 38 0 3
-10 27 -22 53 -12 26 -23 49 -23 52 -1 3 -9 21 -17 40 -25 56 -75 189 -99 265
-12 39 -24 77 -27 85 -3 8 -6 20 -8 25 -17 67 -44 176 -50 200 -4 17 -8 35
-10 40 -6 23 -44 254 -48 295 -17 154 -20 227 -20 415 0 185 9 399 18 415 2 3
7 33 10 67 4 35 8 68 11 75 2 7 6 29 9 48 11 71 47 237 67 305 47 159 59 195
102 312 103 274 264 576 416 779 9 12 23 32 31 44 27 41 151 195 168 210 9 8
28 29 40 45 47 61 206 218 337 331 76 67 311 243 335 252 8 3 17 8 20 12 10
12 138 88 235 140 165 88 169 90 182 90 7 0 13 4 13 9 0 5 10 11 23 14 12 3
82 30 155 61 72 30 132 53 132 50 0 -3 10 0 21 7 18 9 98 35 169 54 8 2 40 11
70 20 30 8 69 17 85 20 17 3 44 10 60 15 17 5 46 11 65 14 51 8 92 16 117 21
12 3 46 8 75 11 29 3 64 7 78 10 144 25 631 25 810 -1 19 -3 59 -7 88 -11 57
-6 83 -10 110 -18 9 -3 34 -7 54 -10 21 -3 59 -11 85 -17 27 -6 55 -12 63 -14
25 -6 120 -32 195 -55 39 -11 77 -22 85 -25 28 -8 247 -93 296 -115 71 -32
253 -123 299 -149 38 -22 40 -22 70 -5 16 10 32 20 35 24 3 3 51 41 108 84
l104 78 -24 16 c-85 61 -377 210 -538 276 -36 15 -73 31 -82 37 -10 5 -26 9
-36 9 -10 0 -22 4 -27 9 -9 8 -144 55 -155 54 -3 -1 -21 5 -40 13 -31 12 -204
59 -255 70 -23 4 -111 22 -140 29 -11 2 -36 6 -55 9 -19 3 -46 8 -60 10 -14 3
-45 7 -70 10 -25 3 -65 8 -90 11 -25 4 -67 9 -95 12 -72 7 -593 12 -600 5z"/>
<path d="M6144 6792 c-10 -10 -26 -23 -35 -28 -9 -5 -32 -21 -50 -36 -45 -37
-198 -157 -240 -188 -18 -14 -40 -33 -48 -42 -9 -10 -21 -18 -27 -18 -7 0 -14
-4 -16 -8 -1 -4 -37 -34 -78 -67 -41 -32 -84 -67 -95 -77 -11 -9 -40 -33 -65
-53 -105 -84 -267 -221 -414 -349 -32 -28 -68 -56 -80 -63 -12 -7 -17 -12 -12
-13 5 0 -9 -14 -30 -31 -121 -96 -461 -424 -674 -649 -143 -151 -400 -472
-400 -499 0 -6 -3 -11 -7 -11 -5 0 -16 -15 -27 -33 -35 -60 -56 -97 -74 -129
-35 -61 -140 -272 -241 -483 -56 -115 -106 -217 -111 -225 -6 -8 -14 -24 -19
-35 -16 -36 -145 -256 -254 -433 -59 -95 -107 -177 -107 -182 0 -6 -4 -10 -8
-10 -5 0 -14 -10 -20 -22 -6 -13 -24 -44 -39 -70 -85 -144 -153 -268 -213
-393 -58 -121 -113 -249 -115 -265 -1 -3 -10 -30 -22 -61 -26 -68 -70 -229
-77 -284 -3 -22 -8 -62 -13 -90 -9 -62 -9 -231 0 -305 9 -79 42 -202 74 -273
24 -57 126 -225 143 -237 25 -18 25 -45 3 -143 -18 -81 -35 -226 -34 -292 5
-347 119 -560 321 -601 49 -10 58 -9 85 9 69 45 87 113 53 202 -11 28 -20 52
-20 55 -1 8 -9 34 -19 55 -47 109 -65 252 -40 327 10 30 20 37 87 62 192 74
440 220 594 351 78 66 218 217 271 291 102 143 193 343 214 474 4 25 10 54 12
65 9 37 9 279 0 325 -20 107 -53 209 -86 265 -35 61 -120 152 -200 215 -119
94 -198 169 -259 248 -39 50 -52 82 -34 82 4 0 28 19 54 43 26 23 66 58 89 77
125 104 420 399 584 584 39 44 75 84 80 90 6 6 33 38 61 71 27 33 59 71 71 85
114 134 331 422 458 607 85 123 110 158 118 161 4 2 7 8 7 13 0 6 24 45 52 87
29 42 59 89 68 103 12 21 208 338 240 389 5 8 26 44 47 80 20 36 39 67 42 70
3 3 14 21 25 40 47 89 90 165 95 170 3 3 20 32 37 65 17 33 47 87 65 120 19
33 43 78 54 100 11 22 22 42 25 45 7 6 99 185 222 430 51 102 95 187 98 190
10 10 30 50 30 60 0 6 -32 10 -78 10 -62 0 -82 -4 -98 -18z m-2282 -2933 c30
-16 81 -68 98 -98 24 -46 22 -121 -5 -177 -80 -164 -319 -151 -378 21 -36 106
27 235 131 265 36 10 126 4 154 -11z m-239 -1318 c6 -6 21 -11 34 -11 13 0 23
-4 23 -9 0 -5 10 -12 23 -15 32 -8 131 -99 168 -153 31 -46 31 -47 25 -146 -4
-55 -8 -103 -11 -107 -3 -4 -7 -24 -11 -44 -11 -70 -66 -239 -84 -256 -3 -3
-6 -11 -8 -19 -5 -21 -79 -144 -102 -169 -11 -12 -20 -24 -20 -27 0 -3 -26
-31 -57 -61 -61 -58 -147 -117 -157 -107 -3 4 -6 2 -6 -4 0 -5 -6 -10 -12 -10
-7 -1 -28 -6 -46 -11 -18 -6 -65 -10 -105 -8 -91 3 -181 44 -262 118 -67 61
-71 68 -80 138 -34 265 47 541 214 730 78 88 189 158 282 180 46 10 179 4 192
-9z"/>
<path d="M6502 6251 c-23 -47 -58 -113 -77 -146 l-34 -61 55 -69 c31 -39 64
-80 75 -93 10 -12 19 -25 19 -28 0 -3 11 -20 25 -38 14 -17 29 -35 33 -41 16
-21 147 -230 147 -235 1 -3 10 -20 21 -37 12 -18 45 -82 75 -142 30 -61 59
-112 65 -115 6 -2 40 2 75 9 35 7 82 16 104 20 79 12 120 18 133 18 16 0 16
-1 -18 68 -16 33 -29 62 -29 64 -1 9 -62 127 -114 220 -97 174 -292 457 -392
570 -15 17 -43 49 -62 72 -19 23 -40 44 -47 46 -6 3 -30 -33 -54 -82z"/>
<path d="M7520 4939 c-19 -4 -55 -10 -80 -13 -54 -7 -96 -14 -130 -22 -14 -3
-38 -8 -55 -10 -35 -4 -81 -12 -111 -18 -12 -2 -37 -7 -55 -10 -19 -3 -44 -8
-55 -10 -12 -2 -39 -7 -60 -10 -22 -4 -84 -15 -139 -26 -122 -23 -164 -31
-190 -35 -19 -3 -102 -18 -275 -50 -127 -24 -196 -35 -240 -39 -14 -1 -30 -5
-35 -8 -6 -3 -35 -8 -65 -12 -30 -3 -77 -10 -105 -16 -27 -5 -70 -12 -95 -15
-25 -3 -58 -8 -75 -11 -16 -3 -41 -7 -55 -8 -14 -2 -52 -7 -85 -11 -33 -4 -69
-9 -80 -11 -11 -2 -47 -7 -80 -10 -68 -7 -80 -14 -90 -51 -9 -39 -105 -237
-116 -241 -5 -2 -9 -8 -9 -13 0 -13 -81 -133 -92 -137 -4 -2 -8 -8 -8 -14 0
-5 -6 -15 -12 -22 -7 -7 -33 -37 -58 -67 -50 -60 -234 -245 -441 -442 -127
-121 -138 -140 -64 -107 28 13 462 156 680 225 99 31 196 61 215 68 19 6 37
12 40 12 3 0 30 9 60 20 30 10 60 20 65 21 6 1 89 27 185 59 175 57 268 91
410 147 41 16 80 30 85 32 6 2 24 9 40 15 17 7 35 14 40 16 6 1 33 12 60 25
28 12 70 31 95 42 312 136 664 357 832 521 22 20 42 37 46 38 8 1 163 173 175
195 9 15 -9 16 -73 3z"/>
<path d="M1815 4920 c-22 -4 -60 -11 -85 -14 -25 -3 -66 -13 -92 -21 -27 -8
-48 -11 -48 -8 0 3 -6 1 -12 -4 -7 -6 -26 -13 -43 -17 -43 -10 -191 -82 -255
-124 -75 -49 -199 -175 -238 -243 -34 -60 -86 -189 -76 -189 4 0 1 -7 -6 -15
-7 -8 -10 -15 -7 -15 3 0 1 -15 -4 -32 -18 -60 -24 -122 -24 -238 1 -198 63
-342 205 -479 41 -39 160 -120 210 -143 103 -47 131 -58 194 -77 132 -41 224
-58 401 -77 124 -13 544 -7 630 10 17 3 135 19 157 20 4 1 26 26 49 56 144
190 241 391 269 560 14 80 16 212 5 270 -4 19 -8 44 -10 55 -5 38 -56 174 -87
232 -27 50 -44 78 -93 151 -21 31 -106 112 -152 144 -26 18 -50 35 -53 38 -3
3 -43 24 -90 46 -91 45 -181 75 -270 93 -30 6 -68 13 -85 17 -45 9 -344 12
-390 4z m330 -425 c117 -23 220 -63 302 -117 103 -69 153 -176 148 -314 -4
-118 -24 -164 -99 -239 -110 -108 -277 -158 -521 -157 -149 2 -206 9 -354 48
-137 35 -206 69 -224 108 -27 57 -40 102 -52 171 -33 190 50 344 234 435 70
35 109 47 216 69 63 13 273 11 350 -4z"/>
<path d="M7470 4264 c-32 -31 -225 -164 -238 -164 -19 0 -24 -40 -16 -133 9
-112 8 -245 -2 -392 -4 -60 -7 -125 -8 -142 -1 -18 -3 -33 -6 -33 -3 0 -5 -12
-6 -27 -1 -41 -14 -145 -18 -152 -3 -4 -7 -27 -11 -51 -3 -25 -11 -63 -17 -85
-5 -22 -12 -51 -15 -65 -2 -14 -11 -50 -19 -80 -8 -30 -17 -66 -20 -80 -8 -36
-73 -232 -84 -252 -6 -10 -10 -22 -10 -27 0 -5 -8 -26 -17 -47 -9 -22 -17 -41
-18 -44 -5 -16 -25 -59 -81 -178 -35 -73 -64 -137 -64 -142 0 -6 -4 -10 -8
-10 -4 0 -13 -12 -20 -27 -34 -80 -264 -424 -326 -489 -6 -6 -29 -33 -51 -60
-432 -522 -1058 -926 -1710 -1105 -60 -17 -119 -32 -130 -34 -19 -5 -39 -9
-87 -20 -13 -3 -36 -8 -53 -11 -16 -2 -41 -7 -55 -9 -14 -3 -34 -7 -46 -9 -12
-2 -45 -7 -75 -11 -30 -4 -66 -9 -81 -10 -99 -13 -219 -19 -391 -19 l-198 -1
6 -55 c10 -81 7 -149 -9 -207 -8 -29 -11 -55 -8 -57 10 -5 456 1 522 8 30 2
75 8 100 11 25 4 61 8 80 10 35 3 50 6 165 26 100 18 118 22 210 44 99 23 93
22 170 44 134 39 372 126 491 181 130 60 325 160 334 171 3 4 23 16 45 27 46
24 284 183 340 227 112 89 193 155 218 179 15 14 30 26 33 26 7 0 271 266 314
316 19 23 53 63 75 89 22 26 46 53 53 60 6 8 12 18 12 23 0 6 4 12 8 14 4 2
21 21 37 43 17 22 34 44 38 50 117 147 295 458 411 717 91 204 207 581 241
783 4 22 9 49 11 60 4 26 11 70 19 120 3 22 8 56 11 75 11 70 27 354 27 470 0
64 -10 262 -19 350 -2 25 -5 63 -7 84 -5 48 -14 52 -47 20z"/>
</g>
</svg>
