<svg xmlns="http://www.w3.org/2000/svg" xmlns:xlink="http://www.w3.org/1999/xlink"><defs>
		<filter id="Filter_0">
			<feFlood flood-color="rgb(0, 0, 0)" flood-opacity="1" result="floodOut"/>
			<feComposite operator="atop" in="floodOut" in2="SourceGraphic" result="compOut"/>
			<feBlend mode="normal" in="compOut" in2="SourceGraphic"/>
		</filter>

	
		<filter id="Filter_0">
			<feFlood flood-color="rgb(0, 0, 0)" flood-opacity="1" result="floodOut"/>
			<feComposite operator="atop" in="floodOut" in2="SourceGraphic" result="compOut"/>
			<feBlend mode="normal" in="compOut" in2="SourceGraphic"/>
		</filter>

	</defs><symbol id="advantage-1-illustration" viewBox="0 0 94.9 94.2">
<style type="text/css">
	.st0{fill:#ED1C24;}
</style>
<g>
	<g>
		<path class="st0" d="M90.3,28.4c-2.1-4.8-5-9.3-8.5-13.1c-0.6,1.3-1.3,2.5-2,3.8c2.6,3,4.7,6.4,6.4,10
			C87.6,28.8,88.9,28.6,90.3,28.4z"/>
	</g>
	<g>
		<path class="st0" d="M90,43.6c0.1,1.2,0.2,2.3,0.2,3.5c0,23.8-19.3,43.1-43.1,43.1c-0.8,0-1.6,0-2.3-0.1c0.1,0.6,0.2,1.2,0.2,1.8
			c0,0.8-0.2,1.5-0.4,2.2c0.8,0,1.7,0.1,2.5,0.1c26,0,47.1-21.1,47.1-47.1c0-2.1-0.2-4.1-0.4-6.2C92.6,41.9,91.3,42.8,90,43.6z"/>
	</g>
	<g>
		<path class="st0" d="M4,47.1C4,23.3,23.3,4,47.1,4c7.9,0,15.2,2.1,21.6,5.8c1.1-0.9,2.2-1.7,3.4-2.6C64.8,2.6,56.2,0,47.1,0
			C21.1,0,0,21.1,0,47.1c0,19.8,12.3,36.8,29.7,43.7c-0.4-1.5-0.6-3.1-0.6-4.6C14.3,79.4,4,64.5,4,47.1z"/>
	</g>
	<g>
		<path class="st0" d="M38.8,84.9c7.7-2.7,16.3-9.7,14.5-19.8c-0.9-5.1-4.5-5-7.3-9.3c14.4-12,24.2-28.7,33-46.3c-0.7,0-1.3,0-2,0
			c-7.4,5.7-21.9,17-28.4,26.4c-2.6,3.8-4.6,9.3-7.3,13.9c-4.5,7.7-15.1,21.2-6.6,31.1c-1.4,4.6-1.2,12.4,4,12.6
			C42,91.8,37.4,88.9,38.8,84.9z M47.1,46.1c1.4,0,2.6,1.2,2.6,2.6c0,1.4-1.2,2.6-2.6,2.6c-1.4,0-2.6-1.2-2.6-2.6
			C44.5,47.2,45.7,46.1,47.1,46.1z M36.8,75c-1.9-9,7-17,11.9-9.3C48.9,73.2,42.5,81.5,36.8,75z"/>
	</g>
	<g>
		<path class="st0" d="M56,51.2c14-5.2,30.6-7.8,39-18.5c-9.4,1.4-18.1,3.5-27.8,4.6C65.1,43.6,60.2,47,56,51.2z"/>
	</g>
	<g>
		<path class="st0" d="M12.3,40c-4.2,12.2,8.4,16,21.8,13.9c3.8-4.8,5.8-10,2-15.9C31.2,30.5,15.2,31.6,12.3,40z M17.6,47.2
			C12.5,36.4,30.5,36.2,32.2,42C34.3,49.6,23.1,50,17.6,47.2z"/>
	</g>
</g>
</symbol><symbol id="advantage-2-illustration" viewBox="0 0 94.2 88.6">
<style type="text/css">
	.st0{fill:#ED1C24;}
</style>
<g>
	<g>
		<path class="st0" d="M87.2,22.4c-0.6,1.7-1.1,3.5-1.7,5.2c3,5.8,4.7,12.4,4.7,19.4c0,14.2-7,26.9-17.6,34.7
			c1.2,0.7,2.2,1.6,3.1,2.7c11.2-8.6,18.5-22.2,18.5-37.4C94.2,38,91.6,29.6,87.2,22.4z"/>
		<path class="st0" d="M9.5,70.3c0.4,0,0.9,0,1.3,0C6.5,63.6,4,55.7,4,47.1C4,23.3,23.3,4,47.1,4C53.9,4,60.3,5.6,66,8.4
			c0.7-1.2,1.5-2.3,2.4-3.3C62,1.9,54.8,0,47.1,0C21.1,0,0,21.1,0,47.1c0,8.5,2.3,16.5,6.2,23.4C7.4,70.4,8.5,70.3,9.5,70.3z"/>
	</g>
</g>
<path class="st0" d="M53.5,82c0.4-6.1-0.9-14,0.7-19.1c4.5-0.1,9.6,0.4,13.2-0.7c8.2-14.8,12-34,18.4-50.6c0-0.9,0-1.8,0-2.6
	C85,6,81.9,5.3,79.1,4.4c-0.2,0-0.4,0-0.7,0C67.8,7.9,66.5,20.5,64,32.1C48.2,27.9,31.7,32,31.1,47.2c-4.5,0.1-8,1.2-9.9,3.9
	c-0.6,6.7,1.6,10.7,6.6,11.8c-1.2,5.3-3.6,9.5-7.2,12.5c-6.4,0.6-15.6-1.6-19.1,2c0,0.9,0,1.8,0,2.6c3.2,3.9,12.9,1.2,19.1,2
	c6.6-3.9,8.5-12.6,11.8-19.7c4.7,0.4,10.9-0.8,14.5,0.7c0,6.6,0,13.2,0,19.7c-7.8,0.5-15.4,1.2-19.1,5.9c14.9,0,29.8,0,44.7,0
	C69.3,83.3,60.1,84,53.5,82z M37.7,47.2c0.7-11.7,15.4-11.7,25.6-8.5c0.1,4.7-0.5,10.2,1.3,13.2C57.6,50.9,47.6,47.4,37.7,47.2z"/>
</symbol><symbol id="advantage-3-illustration" viewBox="0 0 94.2 92">
<style type="text/css">
	.st0{fill:#ED1C24;}
</style>
<circle class="st0" cx="47.1" cy="17.3" r="9.1"/>
<path class="st0" d="M67.5,26.4H47.1H26.7c-1.6,0-2.8,1.3-2.8,2.8v4.5c0,1.6,1.3,2.8,2.8,2.8h0.8v45.4h-0.8c-1.6,0-2.8,1.3-2.8,2.8
	v4.5c0,1.6,1.3,2.8,2.8,2.8h40.8c1.6,0,2.8-1.3,2.8-2.8v-4.5c0-1.5-1.3-2.8-2.8-2.8h-0.8V36.5h0.8c1.6,0,2.8-1.3,2.8-2.8v-4.5
	C70.3,27.7,69,26.4,67.5,26.4z M33.7,36.5h13.2L33.7,49.7V36.5z M60.5,81.9H47l13.5-13.5V81.9z M60.5,53.2L33.7,80V64.9l26.8-26.8
	V53.2z"/>
<path class="st0" d="M47.1,0C21.1,0,0,21.1,0,47.1c0,15.4,7.4,29.1,18.9,37.7v-0.1c0-1.5,0.4-2.9,1.2-4.1C10.3,72.7,4,60.6,4,47.1
	C4,23.3,23.3,4,47.1,4c23.8,0,43.1,19.3,43.1,43.1c0,13.5-6.3,25.6-16.1,33.5c0.7,1.2,1.2,2.6,1.2,4.1v0.1
	c11.5-8.6,18.9-22.3,18.9-37.7C94.2,21.1,73.1,0,47.1,0z"/>
</symbol><symbol id="beard-1" viewBox="0 0 51.5 49.5">
<path d="M50.9,0c-0.1,0-0.2,0-0.2,0c-2.3,7.7-2.9,17.1-9.4,20.6c-1.2-3.4-4.1-4.9-7.4-6.4c-2.1-0.9-4.5-2.6-6.6-2.6
	c-0.5,0-1,0-1.5,0.3c-0.5-0.3-1-0.3-1.5-0.3c-2.1,0.1-4.5,1.7-6.6,2.6c-3.3,1.5-6.3,3-7.4,6.4C3.8,17.1,3.1,7.7,0.8,0
	C0.8,0,0.7,0,0.6,0C0.3,0.7,0.2,1.6,0,2.4c0,1.9,0.5,21.5,1.9,28.4C3.2,37.1,8,41.7,12.7,44.6c3.3,2.1,8.5,4.8,13,4.8
	c4.5,0,9.7-2.8,13-4.8c4.7-3,9.6-7.5,10.8-13.8c1.4-7,1.9-26.5,1.9-28.4C51.3,1.6,51.2,0.7,50.9,0z M36.9,28.1
	c-0.2,1.6-1.7,3.4-3.4,3.5c-3,0.2-4.5-4.4-7.9-4.4c-3.4,0-4.9,4.5-7.9,4.4c-1.7-0.1-3.1-1.9-3.4-3.5c-0.3-1.9,0.6-4.6,1.7-5.6
	c1.1-1.1,2.8-0.9,4.7-1.2c2-0.3,3.8-0.9,4.9-1.9c0,0,0,0,0,0c1.1,1.1,2.8,1.7,4.9,1.9c1.9,0.3,3.6,0.1,4.7,1.2
	C36.3,23.4,37.3,26.1,36.9,28.1z"/>
</symbol><symbol id="beard-2" viewBox="0 0 57.7 68.6">
<path d="M51.6,22.2c0.1-1.7,0.5-3.5,0.7-5.4C53,11.4,53.9,5.1,52.2,0C52.1,0,52,0,52,0c-1.3,3.7-1.3,8.3-2.2,12.4
	c-0.7,3-1.8,5.7-3.2,7.6c-0.5,0.7-1.1,1.5-1.9,1.8c-0.7-3.9-4.3-4.9-7.7-6.4c-2.1-0.9-4-2-6.1-2.2c-0.8-0.1-1.5,0.2-2,0.2
	c-0.5,0-1.2-0.3-2-0.2c-2.1,0.1-4,1.3-6.1,2.2c-3.4,1.4-7,2.4-7.7,6.4c-0.9-0.3-1.4-1.1-1.9-1.8c-1.5-1.9-2.6-4.6-3.2-7.6
	C7,8.3,7,3.7,5.7,0C5.6,0,5.6,0,5.5,0C3.8,5.1,4.7,11.4,5.4,16.8c0.2,1.9,0.6,3.7,0.7,5.4c0.8,11.1-7,23.1-6,28.9
	c0.9,7.5,8.4,9.4,14.2,12.4c4.3,2.2,8.3,5,13.3,5.2c0.4,0,0.9,0,1.3,0c0,0,0,0,0,0c0.4,0,0.9,0,1.3,0c5-0.2,9-2.9,13.3-5.2
	c5.8-3,13.2-4.8,14.2-12.4C58.6,45.3,50.8,33.3,51.6,22.2z M28.8,25.9L28.8,25.9L28.8,25.9L28.8,25.9L28.8,25.9
	c-2.5,0-5.1-0.1-7.2-0.5c0.7-2.1,4-1.6,7.1-1.6c0,0,0.1,0,0.1,0c0,0,0.1,0,0.1,0c3,0,6.4-0.5,7.1,1.6C33.9,25.9,31.4,26,28.8,25.9z"/>
</symbol><symbol id="beard-3" viewBox="0 0 62.4 78.5">
<path d="M62.4,42c0-5.2-2.4-7.8-3.6-10c-0.9-1.6-4-10.8-4.2-17.6C54.5,9.5,52.9,2,51.7,0c-0.9,0-1.5,7.8-2.3,11.6
	c-1.4,7-3.8,8.9-4.4,9c-0.8-2.8-4.1-7.4-13.7-7.7c0,0-0.1,0-0.1,0c0,0-0.1,0-0.1,0c-9.6,0.4-12.9,4.9-13.7,7.7c-0.7-0.1-3-2-4.4-9
	C12.2,7.8,11.5,0,10.7,0C9.5,2,7.9,9.5,7.8,14.4c-0.2,6.9-3.3,16-4.2,17.6C2.4,34.2,0,36.8,0,42c0,3.7,5.2,7.2,5.6,11.4
	c0.1,1.2,0,2.3,0.1,3.4c2,17.5,17.9,21.7,25.4,21.7l0,0l0,0c7.6,0,23.4-4.2,25.4-21.7c0.2-1,0-2.1,0.1-3.4
	C57.2,49.2,62.4,45.7,62.4,42z M33.2,26.8c-0.7-0.1-3.4-0.1-4.1,0c-1.7,0.3-5.8,1-5.8-1.1c0-1.1,6.7-2.3,7.8-2.3
	c1.1,0,7.8,1.2,7.8,2.3C39,27.7,35,27.1,33.2,26.8z"/>
</symbol><symbol id="beard-4" viewBox="0 0 57 97.7">
<path d="M51.1,15.2C50.7,9.8,50.5,4.4,48.6,0c-0.8,0-1.5,7.3-2.3,10.9c-1.5,7.1-3.7,8.3-4.4,8.3c-0.9-3.9-4.4-4.2-7.8-5.9
	c-1.2-0.6-2.3-1.1-3.6-1.2c-0.7-0.1-1.3,0.1-2,0.1c-0.7,0-1.3-0.2-2-0.1c-1.3,0.1-2.4,0.6-3.6,1.2c-3.4,1.6-6.9,2-7.8,5.9
	c-0.7,0-3-1.1-4.4-8.3C9.9,7.3,9.2,0,8.4,0C6.5,4.4,6.3,9.8,5.9,15.2C5,38.8,0,51.5,0,62.4c0,26.1,11.7,35.3,28.5,35.3
	c16.8,0,28.5-9.2,28.5-35.3C57,51.5,52,38.8,51.1,15.2z M34.4,25c-2.8,1.2-5.4-0.7-5.9-0.7c0,0,0,0-0.1,0c0,0,0,0-0.1,0
	c-0.5,0-3.1,1.9-5.9,0.7c-0.8-3.6,2.4-4,5.9-3.9C32,20.9,35.2,21.4,34.4,25z"/>
</symbol><symbol id="beard-5" viewBox="0 0 44.7 104.8">
<path d="M43.4,0c0,0-0.1,0-0.1,0c-2.8,21.5-5.4,22.6-7,22.7c-1.4,0.1-3.6-1.8-4.9-2.5c-1.5-0.9-4.1-2.5-9.1-2.5s-7.6,1.7-9.1,2.5
	c-1.3,0.7-3.5,2.6-4.9,2.5c-1.6-0.1-4.1-1.2-7-22.7c0,0-0.1,0-0.1,0c-2.1,12.2-1.6,50.2,1.2,63.6c2.6,18.5,10.1,35.1,13.4,39.6
	c0.7,1,3.5,1.6,6.4,1.6c2.9,0,5.7-0.5,6.4-1.6c3.3-4.5,10.8-21.1,13.4-39.6C44.9,50.2,45.5,12.2,43.4,0z M22.3,28.2
	c-3.4,0-6.7,0.2-10.1,0.5c1.1-1.8,9-3.2,10.1-3.4c1.1,0.2,9,1.7,10.1,3.4C29,28.3,25.7,28.2,22.3,28.2z"/>
</symbol><symbol id="beard-icon" viewBox="0 0 22.1 21.2">
<style type="text/css">
	.st0{fill:#010101;}
</style>
<path class="st0" d="M21.8,0c0,0-0.1,0-0.1,0c-1,3.3-1.3,7.3-4,8.8c-0.5-1.4-1.8-2.1-3.2-2.7C13.6,5.7,12.6,5,11.7,5
	c-0.2,0-0.4,0-0.6,0.1C10.8,5,10.6,5,10.4,5C9.5,5,8.5,5.7,7.6,6.1C6.1,6.8,4.9,7.4,4.4,8.8c-2.8-1.5-3-5.6-4-8.8c0,0-0.1,0-0.1,0
	C0.1,0.3,0.1,0.7,0,1c0,0.8,0.2,9.2,0.8,12.2c0.5,2.7,2.6,4.6,4.6,5.9c1.4,0.9,3.6,2.1,5.6,2.1c1.9,0,4.2-1.2,5.6-2.1
	c2-1.3,4.1-3.2,4.6-5.9c0.6-3,0.8-11.4,0.8-12.2C22,0.7,21.9,0.3,21.8,0z M15.8,12c-0.1,0.7-0.7,1.5-1.4,1.5
	c-1.3,0.1-1.9-1.9-3.4-1.9c-1.4,0-2.1,1.9-3.4,1.9c-0.7,0-1.3-0.8-1.4-1.5c-0.1-0.8,0.3-2,0.7-2.4c0.5-0.5,1.2-0.4,2-0.5
	C9.8,9,10.6,8.7,11,8.3c0,0,0,0,0,0c0.5,0.5,1.2,0.7,2.1,0.8c0.8,0.1,1.5,0.1,2,0.5C15.6,10.1,16,11.2,15.8,12z"/>
</symbol><symbol id="caret-left" viewBox="0 0 16 32">
<title>caret-left</title>
<path d="M16 5.278v21.444c0 1.485-1.795 2.228-2.845 1.178l-10.722-10.722c-0.651-0.651-0.651-1.706 0-2.357l10.722-10.722c1.050-1.050 2.845-0.306 2.845 1.178z"/>
</symbol><symbol id="caret-right" viewBox="0 0 16 32">
<title>caret-right</title>
<path d="M0 26.722v-21.444c0-1.485 1.795-2.228 2.845-1.178l10.722 10.722c0.651 0.651 0.651 1.706 0 2.357l-10.722 10.722c-1.050 1.050-2.845 0.306-2.845-1.178z"/>
</symbol><symbol id="check" viewBox="0 0 21.7 16.1">
<path d="M21.4,0.3c-0.4-0.4-1-0.4-1.4,0L6.6,13.7L1.7,8.8c-0.4-0.4-1-0.4-1.4,0c-0.4,0.4-0.4,1,0,1.4l5.6,5.6
	c0.2,0.2,0.5,0.3,0.7,0.3c0.3,0,0.5-0.1,0.7-0.3L21.4,1.7C21.8,1.3,21.8,0.7,21.4,0.3z"/>
</symbol><symbol id="clock-desktop" viewBox="0 0 142.2 139.5">
<g>
	<path d="M72.3,21.5V1c0-0.6-0.4-1-1-1c-0.6,0-1,0.4-1,1v20.5c0.3,0,0.7,0,1,0C71.7,21.4,72,21.5,72.3,21.5z"/>
	<path d="M46.3,28.4c0.6-0.3,1.1-0.7,1.7-1L37.8,9.7c-0.3-0.5-0.9-0.6-1.4-0.4c-0.5,0.3-0.6,0.9-0.4,1.4L46.3,28.4z"/>
	<path d="M11,34.7c-0.3,0.5-0.1,1.1,0.4,1.4L29,46.4c0.3-0.6,0.7-1.2,1-1.7L12.4,34.4C11.9,34.1,11.3,34.2,11,34.7z"/>
	<path d="M106.9,8.5c-0.5-0.3-1.1-0.1-1.4,0.4L94.7,27.5c0.6,0.3,1.2,0.7,1.7,1l10.8-18.6C107.6,9.4,107.4,8.8,106.9,8.5z"/>
	<path d="M132.3,35.7c0.5-0.3,0.6-0.9,0.4-1.4c-0.3-0.5-0.9-0.6-1.4-0.4l-18.6,10.8c0.3,0.6,0.7,1.1,1,1.7L132.3,35.7z"/>
	<path d="M23,69.8c0-0.3,0-0.7,0-1H1.5c-0.6,0-1,0.4-1,1c0,0.6,0.4,1,1,1H23C23,70.4,23,70.1,23,69.8z"/>
	<path d="M141.2,68.8h-21.5c0,0.3,0,0.7,0,1s0,0.7,0,1h21.5c0.6,0,1-0.4,1-1C142.2,69.2,141.7,68.8,141.2,68.8z"/>
	<path d="M131.3,103.4l-17.7-10.3c-0.3,0.6-0.7,1.2-1,1.7l17.7,10.3c0.2,0.1,0.3,0.1,0.5,0.1c0.3,0,0.7-0.2,0.9-0.5
		C131.9,104.3,131.8,103.7,131.3,103.4z"/>
	<path d="M10.4,103.9c-0.5,0.3-0.6,0.9-0.4,1.4c0.2,0.3,0.5,0.5,0.9,0.5c0.2,0,0.3,0,0.5-0.1L30,94.8c-0.3-0.6-0.7-1.1-1-1.7
		L10.4,103.9z"/>
	<path d="M96.4,111.1c-0.6,0.3-1.1,0.7-1.7,1l10.2,17.7c0.2,0.3,0.5,0.5,0.9,0.5c0.2,0,0.3,0,0.5-0.1c0.5-0.3,0.6-0.9,0.4-1.4
		L96.4,111.1z"/>
	<path d="M35.4,129.7c-0.3,0.5-0.1,1.1,0.4,1.4c0.2,0.1,0.3,0.1,0.5,0.1c0.3,0,0.7-0.2,0.9-0.5l10.8-18.6c-0.6-0.3-1.2-0.7-1.7-1
		L35.4,129.7z"/>
	<path d="M70.3,118.1v20.5c0,0.6,0.4,1,1,1c0.6,0,1-0.4,1-1v-20.5c-0.3,0-0.7,0-1,0C71,118.1,70.7,118.1,70.3,118.1z"/>
	<path d="M105.2,51.9c0.7-0.4,1-1.3,0.5-2c-0.4-0.7-1.3-1-2-0.5L75.3,65.7l0,0c-1-1-2.4-1.6-4-1.6c-1.5,0-2.9,0.6-4,1.6L47,53.9
		c-0.7-0.4-1.6-0.2-2.1,0.5c-0.4,0.7-0.2,1.6,0.5,2.1l20.3,11.8c-0.1,0.5-0.2,0.9-0.2,1.4c0,3.1,2.5,5.7,5.7,5.7
		c3.1,0,5.7-2.5,5.7-5.7c0-0.5-0.1-1-0.2-1.4L105.2,51.9z M75.8,66.3C75.8,66.3,75.8,66.3,75.8,66.3C75.8,66.3,75.8,66.3,75.8,66.3z
		 M76.2,66.9C76.2,66.9,76.2,66.9,76.2,66.9C76.2,66.9,76.2,66.9,76.2,66.9z M66.5,66.9C66.4,66.9,66.4,66.9,66.5,66.9
		C66.4,66.9,66.4,66.9,66.5,66.9z M66.9,66.3C66.9,66.3,66.8,66.3,66.9,66.3C66.8,66.3,66.9,66.3,66.9,66.3z M71.3,72.4
		c-1.5,0-2.7-1.2-2.7-2.7s1.2-2.7,2.7-2.7c1.5,0,2.7,1.2,2.7,2.7S72.8,72.4,71.3,72.4z"/>
</g>
</symbol><symbol id="facebook-icon" viewBox="0 0 32 32">
<title>facebook_sign</title>
<path d="M22.286 2.286q2.125 0 3.634 1.509t1.509 3.634v17.143q0 2.125-1.509 3.634t-3.634 1.509h-3.357v-10.625h3.554l0.536-4.143h-4.089v-2.643q0-1 0.42-1.5t1.634-0.5l2.179-0.018v-3.696q-1.125-0.161-3.179-0.161-2.429 0-3.884 1.429t-1.455 4.036v3.054h-3.571v4.143h3.571v10.625h-9.5q-2.125 0-3.634-1.509t-1.509-3.634v-17.143q0-2.125 1.509-3.634t3.634-1.509h17.143z"/>
</symbol><symbol id="insta-icon" viewBox="0 0 512 512">
<path d="M480,0H32C14.3,0,0,14.3,0,32v448c0,17.7,14.3,32,32,32h448c17.7,0,32-14.3,32-32V32C512,14.3,497.7,0,480,0z M192,256
	c0,0,5.1-64,64-64c58.9,0,64,64,64,64s1.8,64-64,64C190.2,320,192,256,192,256z M448,448H64V224h64h4.5c-2.7,10.3-4.5,20.9-4.5,32
	c0,70.7,57.3,128,128,128c70.7,0,128-57.3,128-128c0-11.1-1.9-21.7-4.5-32h4.5h64V448z M448,160h-96V64h96V160z"/>
</symbol><symbol id="lock-icon">
	<title>lock-icon</title>
	
		<g filter="url(#Filter_0)">
		<path fill-rule="evenodd" fill="rgb(209, 209, 209)" d="M15.002,6.970 L15.002,15.580 C15.002,16.885 13.755,16.998 13.755,16.998 L1.187,16.998 C-0.385,16.998 0.048,15.580 0.048,15.580 L0.048,6.530 C0.048,5.169 1.306,5.451 1.306,5.451 L1.936,5.451 C1.936,2.299 4.378,-0.002 7.389,-0.002 C10.401,-0.002 13.004,2.299 13.004,5.451 L13.755,5.438 C15.110,5.438 15.002,6.970 15.002,6.970 ZM6.539,11.471 C6.738,11.542 5.892,15.006 5.892,15.006 L8.532,14.987 C8.532,14.987 7.768,11.487 7.871,11.446 C8.609,11.151 9.134,10.403 9.134,9.527 C9.134,8.393 8.256,7.474 7.172,7.474 C6.089,7.474 5.211,8.393 5.211,9.527 C5.211,10.429 5.767,11.195 6.539,11.471 ZM7.535,1.296 C5.171,1.296 3.253,2.963 3.253,5.438 L11.817,5.438 C11.817,2.963 9.900,1.296 7.535,1.296 Z"/>
	</g>
</symbol><symbol id="menu-btn" viewBox="0 0 36.8 20.7">
<style type="text/css">
	.st0{fill:#ED1C24;}
</style>
<g>
	<g>
		<g>
			<path class="st0" d="M0.4,10.5c0,0.5,0.5,1,1.1,1h33.7c0.6,0,1.1-0.4,1.1-1c0-0.5-0.5-1-1.1-1H1.5C0.9,9.5,0.4,9.9,0.4,10.5z"/>
		</g>
		<g>
			<path class="st0" d="M1.5,0.5c-0.6,0-1.1,0.4-1.1,1c0,0.5,0.5,1,1.1,1h33.7c0.6,0,1.1-0.4,1.1-1c0-0.5-0.5-1-1.1-1H1.5z"/>
		</g>
		<g>
			<path class="st0" d="M0.4,19.4c0,0.5,0.5,1,1.1,1h33.7c0.6,0,1.1-0.4,1.1-1c0-0.5-0.5-1-1.1-1H1.5C0.9,18.4,0.4,18.9,0.4,19.4z"/>
		</g>
	</g>
</g>
</symbol><symbol id="mustache-icon" viewBox="0 0 45 12.9">
<style type="text/css">
	.st0{fill:#010101;}
</style>
<path class="st0" d="M22.5,8.2c1.2,1.7,3.6,4.4,8.8,4.7C38.4,13.2,45,7.7,45,5.6c-2.8,2.5-7.4,2.7-9.9,1.7c-3.8-1.5-3.1-4.5-5.9-6.4
	c-1.6-1.1-3.8-1.2-5.7,0c-0.3,0.2-0.7,0.5-1,0.8c-0.3-0.3-0.7-0.6-1-0.8c-1.9-1.2-4.1-1.1-5.7,0c-2.8,2-2.1,4.9-5.9,6.4
	C7.4,8.3,2.8,8.1,0,5.6c0,2.1,6.5,7.6,13.7,7.3C18.9,12.7,21.3,9.9,22.5,8.2L22.5,8.2z"/>
</symbol><symbol id="scissors-icon" viewBox="0 0 23 20">
<g id="Page-1">
	<g id="Core" transform="translate(-127.000000, -128.000000)">
		<g id="content-cut" transform="translate(127.500000, 128.000000)">
			<path id="Shape" d="M8,4c0-2.2-1.8-4-4-4C1.8,0,0,1.8,0,4c0,2.2,1.8,4,4,4c0.6,0,1.1-0.1,1.6-0.4L8,10l-2.4,2.4
				C5.1,12.1,4.6,12,4,12c-2.2,0-4,1.8-4,4s1.8,4,4,4c2.2,0,4-1.8,4-4c0-0.6-0.1-1.1-0.4-1.6L10,12l7,7h4L7.6,5.6C7.9,5.1,8,4.6,8,4
				L8,4z M4,6C2.9,6,2,5.1,2,4c0-1.1,0.9-2,2-2c1.1,0,2,0.9,2,2C6,5.1,5.1,6,4,6L4,6z M4,18c-1.1,0-2-0.9-2-2s0.9-2,2-2
				c1.1,0,2,0.9,2,2S5.1,18,4,18L4,18z M10,9.5c0.3,0,0.5,0.2,0.5,0.5s-0.2,0.5-0.5,0.5c-0.3,0-0.5-0.2-0.5-0.5S9.7,9.5,10,9.5
				L10,9.5z M21,1h-4l-6,6l2,2L21,1L21,1z"/>
		</g>
	</g>
</g>
</symbol><symbol id="signin" viewBox="0 0 32 32">
<title>signin</title>
<path d="M21.143 16q0 0.464-0.339 0.804l-9.714 9.714q-0.339 0.339-0.804 0.339t-0.804-0.339-0.339-0.804v-5.143h-8q-0.464 0-0.804-0.339t-0.339-0.804v-6.857q0-0.464 0.339-0.804t0.804-0.339h8v-5.143q0-0.464 0.339-0.804t0.804-0.339 0.804 0.339l9.714 9.714q0.339 0.339 0.339 0.804zM27.429 9.714v12.571q0 2.125-1.509 3.634t-3.634 1.509h-5.714q-0.232 0-0.402-0.17t-0.17-0.402q0-0.071-0.018-0.357t-0.009-0.473 0.054-0.42 0.179-0.348 0.366-0.116h5.714q1.179 0 2.018-0.839t0.839-2.018v-12.571q0-1.179-0.839-2.018t-2.018-0.839h-5.571t-0.205-0.018-0.205-0.054-0.143-0.098-0.125-0.161-0.036-0.241q0-0.071-0.018-0.357t-0.009-0.473 0.054-0.42 0.179-0.348 0.366-0.116h5.714q2.125 0 3.634 1.509t1.509 3.634z"/>
</symbol><symbol id="signout" viewBox="0 0 30 32">
<title>signout</title>
<path d="M11.429 25.714q0 0.071 0.018 0.357t0.009 0.473-0.054 0.42-0.179 0.348-0.366 0.116h-5.714q-2.125 0-3.634-1.509t-1.509-3.634v-12.571q0-2.125 1.509-3.634t3.634-1.509h5.714q0.232 0 0.402 0.17t0.17 0.402q0 0.071 0.018 0.357t0.009 0.473-0.054 0.42-0.179 0.348-0.366 0.116h-5.714q-1.179 0-2.018 0.839t-0.839 2.018v12.571q0 1.179 0.839 2.018t2.018 0.839h5.571t0.205 0.018 0.205 0.054 0.143 0.098 0.125 0.161 0.036 0.241zM28 16q0 0.464-0.339 0.804l-9.714 9.714q-0.339 0.339-0.804 0.339t-0.804-0.339-0.339-0.804v-5.143h-8q-0.464 0-0.804-0.339t-0.339-0.804v-6.857q0-0.464 0.339-0.804t0.804-0.339h8v-5.143q0-0.464 0.339-0.804t0.804-0.339 0.804 0.339l9.714 9.714q0.339 0.339 0.339 0.804z"/>
</symbol><symbol id="user-icon">
	<title>user-icon</title>
	
	<g filter="url(#Filter_0)">
		<path fill-rule="evenodd" fill="rgb(209, 209, 209)" d="M6.868,0.227 C6.347,0.227 6.427,0.456 6.147,0.496 C5.866,0.535 6.203,0.385 5.361,0.542 C4.519,0.700 4.221,1.766 4.181,2.161 C4.141,2.556 4.131,3.665 4.158,4.257 C4.238,4.613 3.957,4.613 3.957,4.613 C3.452,4.580 3.679,6.128 3.679,6.128 C3.752,6.510 3.653,6.700 4.400,6.995 C4.757,7.993 5.687,8.521 5.687,8.521 C5.687,8.521 5.691,9.137 5.705,9.593 C5.629,9.556 5.965,10.758 3.643,11.095 C1.322,11.432 0.877,12.172 0.440,12.584 C0.002,12.996 0.019,14.994 0.019,14.994 L15.002,15.001 C15.002,15.001 14.890,12.996 14.453,12.584 C14.015,12.172 13.538,11.432 11.217,11.095 C8.960,10.774 9.331,9.588 9.315,9.517 C9.319,9.338 9.343,8.576 9.343,8.576 C9.343,8.576 10.132,7.963 10.488,6.966 C11.048,6.618 11.261,6.569 11.354,6.168 C11.354,6.168 11.519,4.604 10.990,4.612 C10.990,4.612 10.739,4.692 10.819,4.336 C10.899,3.981 10.873,2.871 10.833,2.477 C10.792,2.082 10.853,0.954 10.011,0.796 C9.436,0.690 9.361,0.795 9.080,0.755 C8.799,0.716 8.465,-0.000 7.943,-0.000 L6.868,0.227 Z"/>
	</g>
</symbol><symbol id="vk-icon" viewBox="0 0 34 32">
<title>vk</title>
<path d="M34.232 9.286q0.411 1.143-2.679 5.25-0.429 0.571-1.161 1.518-0.714 0.911-0.982 1.286t-0.545 0.884-0.214 0.75 0.232 0.616 0.58 0.768 1.018 0.946q0.071 0.036 0.089 0.071 2.518 2.339 3.411 3.946 0.054 0.089 0.116 0.223t0.125 0.473-0.009 0.607-0.446 0.491-1.054 0.223l-4.571 0.071q-0.429 0.089-1-0.089t-0.929-0.393l-0.357-0.214q-0.536-0.375-1.25-1.143t-1.223-1.384-1.089-1.036-1.009-0.277q-0.054 0.018-0.143 0.063t-0.304 0.259-0.384 0.527-0.304 0.929-0.116 1.384q0 0.268-0.063 0.491t-0.134 0.33l-0.071 0.089q-0.321 0.339-0.946 0.393h-2.054q-1.268 0.071-2.607-0.295t-2.348-0.946-1.839-1.179-1.259-1.027l-0.446-0.429q-0.179-0.179-0.491-0.536t-1.277-1.625-1.893-2.696-2.188-3.768-2.33-4.857q-0.107-0.286-0.107-0.482t0.054-0.286l0.071-0.107q0.268-0.339 1.018-0.339l4.893-0.036q0.214 0.036 0.411 0.116t0.286 0.152l0.089 0.054q0.286 0.196 0.429 0.571 0.357 0.893 0.821 1.848t0.732 1.455l0.286 0.518q0.518 1.071 1 1.857t0.866 1.223 0.741 0.688 0.607 0.25 0.482-0.089q0.036-0.018 0.089-0.089t0.214-0.393 0.241-0.839 0.17-1.446 0-2.232q-0.036-0.714-0.161-1.304t-0.25-0.821l-0.107-0.214q-0.446-0.607-1.518-0.768-0.232-0.036 0.089-0.429 0.286-0.339 0.679-0.536 0.946-0.464 4.268-0.429 1.464 0.018 2.411 0.232 0.357 0.089 0.598 0.241t0.366 0.429 0.188 0.571 0.063 0.813-0.018 0.982-0.045 1.259-0.027 1.473q0 0.196-0.018 0.75t-0.009 0.857 0.063 0.723 0.205 0.696 0.402 0.438q0.143 0.036 0.304 0.071t0.464-0.196 0.679-0.616 0.929-1.196 1.214-1.92q1.071-1.857 1.911-4.018 0.071-0.179 0.179-0.313t0.196-0.188l0.071-0.054 0.089-0.045t0.232-0.054 0.357-0.009l5.143-0.036q0.696-0.089 1.143 0.045t0.554 0.295z"/>
</symbol></svg>