<!-- Generated by IcoMoon.io -->
<svg version="1.1" xmlns="http://www.w3.org/2000/svg" width="30" height="32" viewBox="0 0 30 32">
<title>signout</title>
<path d="M11.429 25.714q0 0.071 0.018 0.357t0.009 0.473-0.054 0.42-0.179 0.348-0.366 0.116h-5.714q-2.125 0-3.634-1.509t-1.509-3.634v-12.571q0-2.125 1.509-3.634t3.634-1.509h5.714q0.232 0 0.402 0.17t0.17 0.402q0 0.071 0.018 0.357t0.009 0.473-0.054 0.42-0.179 0.348-0.366 0.116h-5.714q-1.179 0-2.018 0.839t-0.839 2.018v12.571q0 1.179 0.839 2.018t2.018 0.839h5.571t0.205 0.018 0.205 0.054 0.143 0.098 0.125 0.161 0.036 0.241zM28 16q0 0.464-0.339 0.804l-9.714 9.714q-0.339 0.339-0.804 0.339t-0.804-0.339-0.339-0.804v-5.143h-8q-0.464 0-0.804-0.339t-0.339-0.804v-6.857q0-0.464 0.339-0.804t0.804-0.339h8v-5.143q0-0.464 0.339-0.804t0.804-0.339 0.804 0.339l9.714 9.714q0.339 0.339 0.339 0.804z"></path>
</svg>
