<svg 
	xmlns="http://www.w3.org/2000/svg"
	xmlns:xlink="http://www.w3.org/1999/xlink"
	width="15px" height="15px">
	<title>user-icon</title>
	<defs>
		<filter id="Filter_0">
			<feFlood flood-color="rgb(0, 0, 0)" flood-opacity="1" result="floodOut" />
			<feComposite operator="atop" in="floodOut" in2="SourceGraphic" result="compOut" />
			<feBlend mode="normal" in="compOut" in2="SourceGraphic" />
		</filter>

	</defs>
	<g filter="url(#Filter_0)">
		<path fill-rule="evenodd"  fill="rgb(209, 209, 209)"
		d="M6.868,0.227 C6.347,0.227 6.427,0.456 6.147,0.496 C5.866,0.535 6.203,0.385 5.361,0.542 C4.519,0.700 4.221,1.766 4.181,2.161 C4.141,2.556 4.131,3.665 4.158,4.257 C4.238,4.613 3.957,4.613 3.957,4.613 C3.452,4.580 3.679,6.128 3.679,6.128 C3.752,6.510 3.653,6.700 4.400,6.995 C4.757,7.993 5.687,8.521 5.687,8.521 C5.687,8.521 5.691,9.137 5.705,9.593 C5.629,9.556 5.965,10.758 3.643,11.095 C1.322,11.432 0.877,12.172 0.440,12.584 C0.002,12.996 0.019,14.994 0.019,14.994 L15.002,15.001 C15.002,15.001 14.890,12.996 14.453,12.584 C14.015,12.172 13.538,11.432 11.217,11.095 C8.960,10.774 9.331,9.588 9.315,9.517 C9.319,9.338 9.343,8.576 9.343,8.576 C9.343,8.576 10.132,7.963 10.488,6.966 C11.048,6.618 11.261,6.569 11.354,6.168 C11.354,6.168 11.519,4.604 10.990,4.612 C10.990,4.612 10.739,4.692 10.819,4.336 C10.899,3.981 10.873,2.871 10.833,2.477 C10.792,2.082 10.853,0.954 10.011,0.796 C9.436,0.690 9.361,0.795 9.080,0.755 C8.799,0.716 8.465,-0.000 7.943,-0.000 L6.868,0.227 Z"/>
	</g>
</svg>